{"title":"Pia Mia ft. Chris Brown - Do It Again (2015.Pop)","uid":12363309,"size":112172125,"categoryP":"video","categoryS":"music_videos","magnet":"?xt=urn:btih:878de4e82e41ce895ab2156fe8db9a56bdf80800&amp;dn=Pia+Mia+ft.+Chris+Brown+-+Do+It+Again+%282015.Pop%29&amp;tr=udp%3A%2F%2Ftracker.openbittorrent.com%3A80&amp;tr=udp%3A%2F%2Fopen.demonii.com%3A1337&amp;tr=udp%3A%2F%2Ftracker.coppersurfer.tk%3A6969&amp;tr=udp%3A%2F%2Fexodus.desync.com%3A6969","seeders":1,"leechers":0,"uploader":"MeRaDil","files":1,"time":1441559002,"description":"PIA MIA ft.CHRIS BROWN &amp; TYGA - DO IT AGAIN\n\n &lt;a href=&quot;\nhttp://gifyu.com/images/PiaMia-1.png&quot; rel=&quot;nofollow&quot; target=&quot;_NEW&quot;&gt;\nhttp://gifyu.com/images/PiaMia-1.png&lt;/a&gt;\n &lt;a href=&quot;\nhttp://gifyu.com/images/PiaMia-2.png&quot; rel=&quot;nofollow&quot; target=&quot;_NEW&quot;&gt;\nhttp://gifyu.com/images/PiaMia-2.png&lt;/a&gt;\n &lt;a href=&quot;\nhttp://gifyu.com/images/PiaMia-3.png&quot; rel=&quot;nofollow&quot; target=&quot;_NEW&quot;&gt;\nhttp://gifyu.com/images/PiaMia-3.png&lt;/a&gt;\n\n\nMEDIA INFO\nGeneral\nPia Mia ft. Chris Brown+Tyga - Do It Again\nFormat                                   : MPEG-4\nFormat profile                           : Base Media\nCodec ID                                 : isom\nFile size                                : 107 MiB\nDuration                                 : 3mn 33s\nOverall bit rate                         : 4 203 Kbps\nMusicVid name                            : Do It Again\nPerformer                                : Pia Mia ft. Chris Brown &amp; Tyga\nGenre                                    : Pop/RnB\nContentType                              : Music Video\nRecorded date                            : 2015\nCover                                    : Yes\nRating                                   : ***\nMake                                     : MeRaDil\nRelease date                             : USA - june 26 - 2015\nPart_ID                                  : Do It Again\n &lt;a href=&quot;\nhttps://thepiratebay.mn/user/MeRaDil&quot; rel=&quot;nofollow&quot; target=&quot;_NEW&quot;&gt;\nhttps://thepiratebay.mn/user/MeRaDil&lt;/a&gt;\n\nVideo\nID                                       : 1\nFormat                                   : AVC\nFormat/Info                              : Advanced Video Codec\nFormat profile                           : &lt;a class=&quot;__cf_email__&quot; href=&quot;/cdn-cgi/l/email-protection&quot; data-cfemail=&quot;551d3c323d1519617b65&quot;&gt;[email&amp;#160;protected]&lt;/a&gt;&lt;script data-cfhash='f9e31' type=&quot;text/javascript&quot;&gt;\n/* &lt;![CDATA[ */!function(){try{var t=&quot;currentScript&quot;in document?document.currentScript:function(){for(var t=document.getElementsByTagName(&quot;script&quot;),e=t.length;e--;)if(t[e].getAttribute(&quot;data-cfhash&quot;))return t[e]}();if(t&amp;&amp;t.previousSibling){var e,r,n,i,c=t.previousSibling,a=c.getAttribute(&quot;data-cfemail&quot;);if(a){for(e=&quot;&quot;,r=parseInt(a.substr(0,2),16),n=2;a.length-n;n+=2)i=parseInt(a.substr(n,2),16)^r,e+=String.fromCharCode(i);e=document.createTextNode(e),c.parentNode.replaceChild(e,c)}t.parentNode.removeChild(t);}}catch(u){}}()/* ]]&gt; */&lt;/script&gt;\nFormat settings, CABAC                   : Yes\nFormat settings, ReFrames                : 2 frames\nCodec ID                                 : avc1\nCodec ID/Info                            : Advanced Video Coding\nDuration                                 : 3mn 33s\nBit rate                                 : 3 923 Kbps\nWidth                                    : 1 920 pixels\nHeight                                   : 1 080 pixels\nDisplay aspect ratio                     : 16:9\nFrame rate mode                          : Variable\nFrame rate                               : 23.976 fps\nMinimum frame rate                       : 23.974 fps\nMaximum frame rate                       : 23.981 fps\nColor space                              : YUV\nChroma subsampling                       : 4:2:0\nBit depth                                : 8 bits\nScan type                                : Progressive\nBits/(Pixel*Frame)                       : 0.079\nStream size                              : 99.8 MiB (93%)\n\nAudio\nID                                       : 2\nFormat                                   : AAC\nFormat/Info                              : Advanced Audio Codec\nFormat profile                           : LC\nCodec ID                                 : 40\nDuration                                 : 3mn 33s\nBit rate mode                            : Constant\nBit rate                                 : 256 Kbps\nChannel(s)                               : 2 channels\nChannel positions                        : Front: L R\nSampling rate                            : 44.1 KHz\nCompression mode                         : Lossy\nStream size                              : 6.52 MiB (6%)\n\nPia Mia * Pop/RnB * Promo * Chris Brown * Tyga","torrent":{"xt":"urn:btih:878de4e82e41ce895ab2156fe8db9a56bdf80800","amp;dn":"Pia+Mia+ft.+Chris+Brown+-+Do+It+Again+%282015.Pop%29","amp;tr":["udp%3A%2F%2Ftracker.openbittorrent.com%3A80","udp%3A%2F%2Fopen.demonii.com%3A1337","udp%3A%2F%2Ftracker.coppersurfer.tk%3A6969","udp%3A%2F%2Fexodus.desync.com%3A6969"],"infoHash":"878de4e82e41ce895ab2156fe8db9a56bdf80800","infoHashBuffer":{"type":"Buffer","data":[135,141,228,232,46,65,206,137,90,178,21,111,232,219,154,86,189,248,8,0]},"announce":[],"urlList":[]}}